<svg xmlns="http://www.w3.org/2000/svg" version="1.0" width="256.000000pt" height="256.000000pt" viewBox="0 0 256.000000 256.000000" preserveAspectRatio="xMidYMid meet" transform="matrix(1, 0, 0, 1, 0, 0)">

<g transform="translate(0.000000,256.000000) scale(0.100000,-0.100000)" fill="#ff3360" stroke="none">
<path d="M1458 2453 c6 -2 18 -2 25 0 6 3 1 5 -13 5 -14 0 -19 -2 -12 -5z" fill="#ff3360"/>
<path d="M1038 2443 c7 -3 16 -2 19 1 4 3 -2 6 -13 5 -11 0 -14 -3 -6 -6z" fill="#ff3360"/>
<path d="M1513 2443 c9 -2 23 -2 30 0 6 3 -1 5 -18 5 -16 0 -22 -2 -12 -5z" fill="#ff3360"/>
<path d="M965 2430 c-13 -5 -14 -9 -5 -9 8 0 24 4 35 9 13 5 14 9 5 9 -8 0 -24 -4 -35 -9z" fill="#ff3360"/>
<path d="M1655 2406 c716 -234 1042 -1010 697 -1658 -26 -48 -50 -88 -54 -88 -5 0 -8 21 -8 48 -1 62 -40 199 -73 254 -15 23 -61 79 -103 123 -72 75 -64 62 32 -56 22 -27 41 -55 41 -62 1 -7 4 -28 8 -47 6 -34 6 -35 -12 -15 -10 11 -31 28 -48 39 -21 13 -12 0 27 -40 74 -77 88 -111 88 -223 0 -125 -17 -123 -22 2 -4 121 -17 149 -106 223 l-57 49 63 -69 c35 -37 68 -80 74 -95 5 -14 12 -72 15 -128 l6 -102 -64 -67 c-69 -73 -219 -195 -230 -189 -3 3 -3 26 2 51 12 61 5 68 -10 10 -13 -53 -31 -69 -32 -29 -1 25 -2 23 -12 -12 -16 -55 -22 -62 -75 -89 -201 -101 -499 -137 -755 -91 -165 29 -330 97 -350 144 -7 15 -17 26 -24 24 -7 -3 -20 20 -32 59 -19 63 -30 53 -11 -12 5 -19 6 -38 1 -43 -11 -11 -154 99 -234 182 l-67 69 0 74 c0 114 12 142 95 225 86 86 83 97 -5 16 -76 -70 -96 -109 -106 -204 -7 -63 -9 -69 -15 -41 -9 43 5 157 22 180 7 9 40 46 73 81 47 50 53 59 25 38 -32 -23 -39 -24 -49 -12 -8 9 -8 15 -2 15 6 0 14 15 18 32 4 19 45 82 96 146 49 61 87 112 84 112 -2 0 -35 -36 -73 -81 -37 -44 -92 -108 -121 -142 -30 -35 -57 -79 -63 -102 -6 -22 -20 -70 -31 -107 -11 -37 -17 -76 -13 -87 3 -11 1 -22 -4 -26 -13 -8 -94 153 -126 251 -64 197 -73 463 -20 653 72 263 236 494 466 655 79 55 224 128 301 152 32 10 56 19 54 22 -8 8 -141 -40 -221 -80 -132 -66 -214 -125 -315 -227 -139 -139 -224 -273 -279 -437 -54 -161 -64 -224 -64 -404 -1 -147 2 -176 26 -263 71 -264 218 -485 429 -645 275 -208 582 -289 937 -247 128 14 308 68 417 123 90 46 229 149 313 232 147 146 271 378 312 585 21 103 18 368 -4 474 -88 413 -387 740 -805 880 -51 17 -101 31 -110 30 -9 0 28 -15 83 -33z" fill="#ff3360"/>
<path d="M1067 1972 c-10 -2 -17 -13 -17 -28 0 -24 1 -24 95 -24 93 0 95 1 85 20 -7 14 -7 20 0 20 5 0 10 3 10 8 0 7 -138 10 -173 4z m101 -29 c-10 -2 -28 -2 -40 0 -13 2 -5 4 17 4 22 1 32 -1 23 -4z" fill="#ff3360"/>
<path d="M1319 1978 c0 -2 -2 -15 -3 -30 l-2 -28 93 0 c93 0 93 0 91 25 -3 29 -14 35 -51 28 -25 -5 -26 -6 -10 -19 16 -12 13 -13 -26 -14 -36 0 -41 2 -32 14 9 11 7 15 -11 20 -24 6 -47 8 -49 4z" fill="#ff3360"/>
<path d="M1063 1870 c-18 -11 -33 -22 -33 -26 0 -4 60 28 79 43 16 12 -20 -1 -46 -17z" fill="#ff3360"/>
<path d="M1175 1868 c11 -6 30 -23 42 -37 11 -14 24 -23 28 -19 11 10 -50 68 -72 68 -16 -1 -16 -2 2 -12z" fill="#ff3360"/>
<path d="M1351 1854 c-17 -14 -31 -33 -31 -42 1 -13 8 -9 28 14 15 17 36 36 47 42 16 9 17 11 3 12 -9 0 -30 -12 -47 -26z" fill="#ff3360"/>
<path d="M1471 1876 c2 -2 20 -11 39 -20 l35 -17 -24 21 c-13 11 -30 20 -39 20 -8 0 -13 -2 -11 -4z" fill="#ff3360"/>
<path d="M1074 1783 c-13 -17 -24 -36 -24 -42 0 -15 40 -23 86 -18 33 3 31 4 -14 5 -44 2 -53 5 -50 19 4 24 87 27 105 4 21 -27 14 -3 -9 33 -28 43 -60 43 -94 -1z" fill="#ff3360"/>
<path d="M1381 1784 c-29 -49 -22 -64 33 -64 81 0 92 14 52 64 -15 18 -28 26 -36 21 -7 -4 -16 -2 -20 4 -5 8 -15 0 -29 -25z m77 -36 c-3 -7 -21 -14 -41 -16 -28 -2 -37 1 -37 12 0 12 11 16 41 16 28 0 39 -4 37 -12z" fill="#ff3360"/>
<path d="M920 1701 c0 -106 -1 -110 -22 -114 -20 -4 -19 -4 5 -6 l27 -1 0 115 c0 63 -2 115 -5 115 -3 0 -5 -49 -5 -109z" fill="#ff3360"/>
<path d="M1622 1693 c-1 -62 0 -113 2 -113 2 0 13 -3 23 -6 17 -6 17 -6 1 7 -14 11 -18 34 -21 119 l-3 105 -2 -112z" fill="#ff3360"/>
<path d="M1253 1725 c0 -33 2 -45 4 -27 2 18 2 45 0 60 -2 15 -4 0 -4 -33z" fill="#ff3360"/>
<path d="M1300 1672 c0 -45 4 -82 9 -82 9 0 3 149 -5 159 -2 2 -4 -32 -4 -77z" fill="#ff3360"/>
<path d="M1236 1623 c-4 -9 -2 -21 4 -27 7 -7 10 -2 10 17 0 31 -5 34 -14 10z" fill="#ff3360"/>
<path d="M629 1313 c-13 -16 -12 -17 4 -4 9 7 17 15 17 17 0 8 -8 3 -21 -13z" fill="#ff3360"/>
<path d="M589 1263 c-13 -16 -12 -17 4 -4 16 13 21 21 13 21 -2 0 -10 -8 -17 -17z" fill="#ff3360"/>
<path d="M2015 1190 c10 -11 20 -20 23 -20 3 0 -3 9 -13 20 -10 11 -20 20 -23 20 -3 0 3 -9 13 -20z" fill="#ff3360"/>
<path d="M1000 1182 c0 -10 22 -32 32 -32 15 0 8 15 -12 28 -11 7 -20 9 -20 4z" fill="#ff3360"/>
<path d="M1065 1163 c4 -10 12 -30 17 -45 8 -23 16 -28 41 -27 31 0 31 1 8 10 -20 8 -23 14 -18 44 6 34 4 35 -25 35 -25 0 -29 -3 -23 -17z" fill="#ff3360"/>
<path d="M1430 1172 c-22 -10 -21 -82 1 -82 9 0 19 10 22 23 3 12 9 32 12 45 8 23 -4 28 -35 14z" fill="#ff3360"/>
<path d="M1518 1163 c-18 -5 -31 -30 -19 -37 4 -3 19 6 31 19 23 25 21 27 -12 18z" fill="#ff3360"/>
<path d="M1960 1055 c0 -7 81 -57 85 -53 2 2 -16 16 -40 31 -25 14 -45 24 -45 22z" fill="#ff3360"/>
<path d="M533 1019 c-35 -22 -46 -37 -15 -20 22 13 58 40 52 41 -3 0 -20 -10 -37 -21z" fill="#ff3360"/>
<path d="M1870 1021 c0 -11 48 -47 54 -40 2 2 -10 14 -25 27 -16 13 -29 19 -29 13z" fill="#ff3360"/>
<path d="M707 994 c-15 -13 -24 -24 -19 -24 14 0 58 37 52 43 -3 3 -18 -6 -33 -19z" fill="#ff3360"/>
<path d="M1070 1010 c0 -5 7 -10 15 -10 8 0 15 5 15 10 0 6 -7 10 -15 10 -8 0 -15 -4 -15 -10z" fill="#ff3360"/>
<path d="M1440 1010 c0 -5 7 -10 15 -10 8 0 15 5 15 10 0 6 -7 10 -15 10 -8 0 -15 -4 -15 -10z" fill="#ff3360"/>
<path d="M1390 995 c0 -8 -7 -15 -15 -15 -8 0 -15 -5 -15 -10 0 -7 6 -7 20 0 17 9 29 40 15 40 -3 0 -5 -7 -5 -15z" fill="#ff3360"/>
<path d="M793 925 c0 -38 2 -53 4 -32 2 20 2 52 0 70 -2 17 -4 1 -4 -38z" fill="#ff3360"/>
<path d="M1155 980 c-3 -5 1 -10 10 -10 9 0 13 5 10 10 -3 6 -8 10 -10 10 -2 0 -7 -4 -10 -10z" fill="#ff3360"/>
<path d="M1110 930 c-8 -5 -12 -12 -9 -15 4 -3 12 1 19 10 14 17 11 19 -10 5z" fill="#ff3360"/>
<path d="M1430 894 c0 -8 5 -12 10 -9 6 4 8 11 5 16 -9 14 -15 11 -15 -7z" fill="#ff3360"/>
<path d="M1145 839 c-10 -30 -2 -32 12 -3 6 13 7 24 3 24 -5 0 -12 -9 -15 -21z" fill="#ff3360"/>
<path d="M1261 604 c0 -11 3 -14 6 -6 3 7 2 16 -1 19 -3 4 -6 -2 -5 -13z" fill="#ff3360"/>
<path d="M615 507 c-4 -14 -5 -36 -2 -48 3 -18 5 -15 6 11 l2 35 15 -27 c21 -40 26 -34 7 10 -20 48 -21 49 -28 19z" fill="#ff3360"/>
<path d="M873 495 c-3 -9 -3 -18 -1 -21 3 -3 8 4 11 16 6 23 -1 27 -10 5z" fill="#ff3360"/>
<path d="M1667 497 c-3 -8 -1 -20 4 -28 6 -10 9 -7 9 14 0 29 -5 35 -13 14z" fill="#ff3360"/>
<path d="M1725 485 c0 -13 3 -21 8 -18 4 2 7 10 7 18 0 8 -3 16 -7 18 -5 3 -8 -5 -8 -18z" fill="#ff3360"/>
<path d="M931 484 c0 -11 3 -14 6 -6 3 7 2 16 -1 19 -3 4 -6 -2 -5 -13z" fill="#ff3360"/>
<path d="M1896 436 c-43 -74 -132 -137 -231 -163 l-50 -13 45 5 c24 3 63 14 86 24 48 22 143 91 144 106 0 6 12 21 25 34 14 13 25 29 25 37 0 26 -18 14 -44 -30z" fill="#ff3360"/>
<path d="M666 423 c11 -41 167 -133 224 -131 18 0 14 2 -13 9 -57 13 -115 46 -168 96 -30 28 -46 38 -43 26z" fill="#ff3360"/>
</g>
</svg>